# xmcd CD database file
#
# Track frame offsets:
#	150
#	12744
#	25318
#	36993
#	45996
#	55158
#	65254
#	76782
#	83824
#	96528
#
# Disc length: 1413 seconds
#
# Revision: 0
# Processed by: cddbd v1.5.2PL0 Copyright (c) Steve Scherf et al.
# Submitted via: CDex 1.70beta2
#
DISCID=7905830a
DTITLE=Conway Twitty - The Early Years
DYEAR=2008
DGENRE=Country
TTITLE0=I See The Want To In Your Eyes
TTITLE1=I've Already Loved You In My Mind
TTITLE2=Sitting In A Dim Cafe
TTITLE3=I Wonder If You Told Her About Me
TTITLE4=Don't Go Too Far
TTITLE5=Let Me Be The Judge
TTITLE6=You Made Me What I Am Today
TTITLE7=Treat Me Mean Treat Me Cruel
TTITLE8=Reputation
TTITLE9=Ever Since You Went Away
EXTD=YEAR: 2008
EXTT0=
EXTT1=
EXTT2=
EXTT3=
EXTT4=
EXTT5=
EXTT6=
EXTT7=
EXTT8=
EXTT9=
PLAYORDER=
